# xmcd
#
# Track frame offsets:
#	150
#	16046
#	30877
#	53083
#	73975
#	97211
#	118950
#	142436
#	167868
#	186940
#	203230
#
# Disc length: 2953 seconds
#
# Revision: 1
# Processed by: cddbd v1.5.2PL0 Copyright (c) Steve Scherf et al.
# Submitted via: audiograbber 1.83.01
#
DISCID=a60b870b
DTITLE=The Hickmen - California Dreamin'
DYEAR=2004
DGENRE=Country
TTITLE0=Hills Of California
TTITLE1=Hungry City
TTITLE2=San Bernardino County Blues
TTITLE3=In A Fever
TTITLE4=Costco Socks
TTITLE5=Last Train Tonight
TTITLE6=Father Winter
TTITLE7=I Gotta Gun
TTITLE8=True Blue Red American
TTITLE9=Envy
TTITLE10=Let's Remember This
EXTD=
EXTT0=
EXTT1=
EXTT2=
EXTT3=
EXTT4=
EXTT5=
EXTT6=
EXTT7=
EXTT8=
EXTT9=
EXTT10=
PLAYORDER=
